<svg xmlns="http://www.w3.org/2000/svg" xmlns:xlink="http://www.w3.org/1999/xlink" width="48" zoomAndPan="magnify" viewBox="0 0 36 36.000001" height="48" preserveAspectRatio="xMidYMid meet" version="1.0"><defs><clipPath id="2c6d52188e"><path d="M 0.488281 0 L 35.511719 0 L 35.511719 35.027344 L 0.488281 35.027344 Z M 0.488281 0 " clip-rule="nonzero"/></clipPath><clipPath id="75675da68f"><path d="M 18 0 C 8.328125 0 0.488281 7.839844 0.488281 17.511719 C 0.488281 27.1875 8.328125 35.027344 18 35.027344 C 27.671875 35.027344 35.511719 27.1875 35.511719 17.511719 C 35.511719 7.839844 27.671875 0 18 0 Z M 18 0 " clip-rule="nonzero"/></clipPath><clipPath id="165e1b332f"><path d="M 0.488281 0 L 35.511719 0 L 35.511719 35.027344 L 0.488281 35.027344 Z M 0.488281 0 " clip-rule="nonzero"/></clipPath><clipPath id="b50be6e53d"><path d="M 18 0 C 8.328125 0 0.488281 7.839844 0.488281 17.511719 C 0.488281 27.1875 8.328125 35.027344 18 35.027344 C 27.671875 35.027344 35.511719 27.1875 35.511719 17.511719 C 35.511719 7.839844 27.671875 0 18 0 Z M 18 0 " clip-rule="nonzero"/></clipPath><clipPath id="7af3fcf872"><rect x="0" width="36" y="0" height="36"/></clipPath><clipPath id="bbdc5233bc"><path d="M 21 6 L 22.824219 6 L 22.824219 12 L 21 12 Z M 21 6 " clip-rule="nonzero"/></clipPath><clipPath id="0c0c402886"><path d="M 22 8 L 22.824219 8 L 22.824219 10 L 22 10 Z M 22 8 " clip-rule="nonzero"/></clipPath><clipPath id="f1984b63e5"><path d="M 13 5 L 22 5 L 22 14.449219 L 13 14.449219 Z M 13 5 " clip-rule="nonzero"/></clipPath><clipPath id="d2613bf955"><path d="M 18 13 L 19 13 L 19 14.449219 L 18 14.449219 Z M 18 13 " clip-rule="nonzero"/></clipPath><clipPath id="2ffd094ef1"><path d="M 16 13 L 17 13 L 17 14.449219 L 16 14.449219 Z M 16 13 " clip-rule="nonzero"/></clipPath><clipPath id="3b13a26631"><path d="M 11.878906 8 L 13 8 L 13 10 L 11.878906 10 Z M 11.878906 8 " clip-rule="nonzero"/></clipPath><clipPath id="32e6589ac5"><path d="M 14 3.503906 L 18 3.503906 L 18 6 L 14 6 Z M 14 3.503906 " clip-rule="nonzero"/></clipPath><clipPath id="3b2b424014"><path d="M 17 3.503906 L 19 3.503906 L 19 5 L 17 5 Z M 17 3.503906 " clip-rule="nonzero"/></clipPath><clipPath id="9c9ac06b66"><path d="M 4.761719 12.308594 L 30.300781 12.308594 L 30.300781 25 L 4.761719 25 Z M 4.761719 12.308594 " clip-rule="nonzero"/></clipPath><clipPath id="456159f12c"><path d="M 7 25 L 17 25 L 17 30.550781 L 7 30.550781 Z M 7 25 " clip-rule="nonzero"/></clipPath><clipPath id="5ce4a49830"><path d="M 4.761719 18 L 28 18 L 28 30.550781 L 4.761719 30.550781 Z M 4.761719 18 " clip-rule="nonzero"/></clipPath><clipPath id="9d0b431a59"><path d="M 18 18 L 30.300781 18 L 30.300781 25 L 18 25 Z M 18 18 " clip-rule="nonzero"/></clipPath><clipPath id="39ce871388"><path d="M 6 12.308594 L 18 12.308594 L 18 24 L 6 24 Z M 6 12.308594 " clip-rule="nonzero"/></clipPath><clipPath id="80a6a7b583"><path d="M 17 12.308594 L 29 12.308594 L 29 24 L 17 24 Z M 17 12.308594 " clip-rule="nonzero"/></clipPath><clipPath id="714adf2eee"><path d="M 8 12.308594 L 27 12.308594 L 27 23 L 8 23 Z M 8 12.308594 " clip-rule="nonzero"/></clipPath></defs><g clip-path="url(#2c6d52188e)"><g clip-path="url(#75675da68f)"><g transform="matrix(1, 0, 0, 1, 0.000000000000000056, 0.000000000000010582)"><g clip-path="url(#7af3fcf872)"><g clip-path="url(#165e1b332f)"><g clip-path="url(#b50be6e53d)"><path fill="#ffffff" d="M 0.488281 0 L 35.511719 0 L 35.511719 35.027344 L 0.488281 35.027344 Z M 0.488281 0 " fill-opacity="1" fill-rule="nonzero"/></g></g></g></g></g></g><g clip-path="url(#bbdc5233bc)"><path fill="#000000" d="M 21.878906 6.125 L 21.867188 6.132812 C 21.804688 6.171875 21.769531 6.214844 21.757812 6.261719 C 21.738281 6.304688 21.730469 6.398438 21.734375 6.53125 C 21.738281 6.582031 21.738281 6.632812 21.742188 6.683594 L 21.855469 9.007812 C 21.898438 9.574219 21.925781 10.015625 21.941406 10.335938 C 21.953125 10.554688 21.957031 10.6875 21.957031 10.722656 C 21.960938 10.824219 21.960938 11.019531 21.964844 11.308594 L 21.96875 11.433594 C 21.96875 11.46875 21.972656 11.496094 21.976562 11.515625 C 21.980469 11.535156 21.984375 11.542969 21.996094 11.542969 C 22.027344 11.542969 22.121094 11.234375 22.277344 10.613281 L 22.136719 7.378906 C 22.140625 7.222656 22.152344 7.148438 22.167969 7.148438 C 22.175781 7.132812 22.214844 7.175781 22.285156 7.285156 C 22.300781 7.296875 22.308594 7.292969 22.316406 7.277344 C 22.332031 7.257812 22.335938 7.136719 22.328125 6.917969 L 21.878906 6.125 " fill-opacity="1" fill-rule="nonzero"/></g><g clip-path="url(#0c0c402886)"><path fill="#000000" d="M 22.804688 8.3125 L 22.808594 8.308594 C 22.816406 8.28125 22.816406 8.261719 22.808594 8.242188 C 22.796875 8.210938 22.78125 8.191406 22.761719 8.1875 C 22.734375 8.171875 22.695312 8.1875 22.644531 8.238281 C 22.582031 8.304688 22.519531 8.390625 22.464844 8.496094 C 22.417969 8.585938 22.390625 8.640625 22.386719 8.664062 C 22.371094 8.699219 22.355469 8.738281 22.34375 8.773438 C 22.304688 8.890625 22.289062 8.988281 22.292969 9.078125 C 22.296875 9.164062 22.316406 9.222656 22.355469 9.257812 C 22.390625 9.285156 22.4375 9.289062 22.5 9.269531 C 22.5625 9.246094 22.652344 9.199219 22.769531 9.121094 L 22.8125 8.863281 C 22.695312 8.925781 22.617188 8.957031 22.578125 8.953125 C 22.554688 8.949219 22.542969 8.941406 22.53125 8.925781 C 22.527344 8.917969 22.523438 8.910156 22.519531 8.898438 C 22.519531 8.894531 22.519531 8.878906 22.519531 8.847656 C 22.523438 8.777344 22.550781 8.699219 22.601562 8.613281 C 22.628906 8.5625 22.660156 8.507812 22.691406 8.457031 L 22.804688 8.3125 " fill-opacity="1" fill-rule="nonzero"/></g><g clip-path="url(#f1984b63e5)"><path fill="#000000" d="M 20.472656 10.800781 L 20.488281 10.800781 C 20.511719 10.804688 20.527344 10.8125 20.53125 10.816406 C 20.539062 10.824219 20.550781 10.828125 20.5625 10.835938 C 20.597656 10.871094 20.625 10.902344 20.640625 10.933594 C 20.652344 10.957031 20.660156 10.980469 20.664062 11.011719 C 20.671875 11.054688 20.667969 11.089844 20.664062 11.121094 C 20.65625 11.164062 20.652344 11.1875 20.648438 11.191406 C 20.636719 11.238281 20.632812 11.265625 20.625 11.277344 C 20.609375 11.316406 20.59375 11.34375 20.578125 11.363281 C 20.570312 11.367188 20.558594 11.382812 20.53125 11.40625 C 20.519531 11.417969 20.503906 11.421875 20.492188 11.429688 C 20.460938 11.445312 20.429688 11.457031 20.390625 11.453125 C 20.363281 11.453125 20.347656 11.441406 20.335938 11.429688 C 20.320312 11.40625 20.308594 11.386719 20.300781 11.367188 C 20.292969 11.335938 20.285156 11.296875 20.28125 11.257812 C 20.277344 11.230469 20.277344 11.210938 20.277344 11.203125 C 20.277344 11.171875 20.277344 11.148438 20.28125 11.125 C 20.289062 11.054688 20.320312 10.976562 20.371094 10.890625 C 20.414062 10.824219 20.449219 10.796875 20.472656 10.800781 M 21.179688 5.300781 L 21.132812 5.3125 C 21.011719 5.359375 20.949219 5.460938 20.960938 5.625 C 21.167969 8.445312 21.3125 10.515625 21.382812 11.84375 L 21.140625 12.097656 C 20.917969 12.253906 20.699219 12.214844 20.484375 11.976562 C 20.472656 11.941406 20.480469 11.902344 20.515625 11.859375 C 20.644531 11.765625 20.789062 11.628906 20.894531 11.421875 C 20.988281 11.238281 21.003906 11.066406 20.984375 10.933594 C 20.949219 10.679688 20.882812 10.5 20.769531 10.425781 C 20.644531 10.339844 20.523438 10.339844 20.433594 10.390625 C 20.257812 10.488281 20.140625 10.613281 20.089844 10.765625 C 20.050781 10.878906 20.027344 10.996094 20.019531 11.121094 L 20.035156 11.519531 L 20.054688 11.621094 C 20.054688 11.660156 20.042969 11.691406 20.027344 11.714844 C 20 11.75 19.9375 11.792969 19.835938 11.839844 L 19.105469 12.121094 C 19.011719 12.167969 18.921875 12.222656 18.835938 12.289062 L 18.574219 12.546875 C 18.386719 12.824219 18.121094 13.148438 17.785156 13.515625 C 17.640625 13.671875 17.507812 13.753906 17.386719 13.757812 C 17.125 13.640625 17.066406 13.261719 17.210938 12.621094 C 17.660156 12.242188 17.890625 11.949219 17.894531 11.738281 C 17.894531 11.617188 17.871094 11.476562 17.820312 11.308594 L 17.574219 10.679688 C 17.574219 10.65625 17.585938 10.636719 17.609375 10.628906 L 17.84375 10.667969 C 17.867188 10.667969 17.875 10.65625 17.871094 10.636719 C 17.683594 10.347656 17.515625 10.136719 17.382812 10 C 17.257812 9.875 17.183594 10.058594 17.15625 10.554688 L 17.589844 11.414062 C 17.644531 11.585938 17.652344 11.699219 17.609375 11.757812 C 17.585938 11.867188 17.386719 12.050781 17 12.285156 C 16.640625 12.503906 16.367188 12.617188 16.199219 12.679688 C 15.476562 12.953125 14.957031 12.964844 14.605469 12.714844 C 14.445312 12.597656 14.3125 12.433594 14.214844 12.195312 C 14.175781 12.101562 14.171875 11.753906 14.203125 11.144531 L 13.976562 11.230469 C 13.753906 12.375 13.863281 13.078125 14.304688 13.34375 C 14.632812 13.542969 14.984375 13.617188 15.363281 13.566406 C 15.699219 13.519531 16.195312 13.289062 16.84375 12.875 C 16.808594 13.28125 16.808594 13.503906 16.839844 13.539062 C 16.867188 13.660156 16.90625 13.761719 16.964844 13.84375 C 17.023438 13.925781 17.097656 13.988281 17.1875 14.035156 L 17.339844 14.089844 C 17.484375 14.121094 17.574219 14.125 17.601562 14.097656 C 17.707031 14.070312 17.828125 13.984375 17.972656 13.851562 C 18.019531 13.808594 18.308594 13.449219 18.832031 12.757812 C 18.867188 12.710938 18.933594 12.660156 19.035156 12.605469 L 20.21875 12.078125 C 20.296875 12.484375 20.550781 12.6875 20.957031 12.59375 C 21.207031 12.535156 21.390625 12.28125 21.539062 11.929688 C 21.554688 11.898438 21.589844 11.796875 21.632812 11.613281 L 21.382812 6.230469 C 21.511719 6.390625 21.570312 6.363281 21.554688 6.148438 C 21.550781 6.101562 21.542969 6.050781 21.519531 6.003906 C 21.335938 5.691406 21.21875 5.457031 21.179688 5.300781 Z M 21.179688 5.300781 " fill-opacity="1" fill-rule="nonzero"/></g><path fill="#000000" d="M 20.414062 5.511719 L 20.425781 5.53125 C 20.492188 5.625 20.535156 5.664062 20.558594 5.644531 C 20.574219 5.632812 20.582031 5.601562 20.585938 5.554688 C 20.589844 5.484375 20.589844 5.429688 20.578125 5.390625 C 20.570312 5.347656 20.558594 5.304688 20.539062 5.269531 L 20.386719 4.957031 C 20.371094 4.929688 20.332031 4.832031 20.269531 4.664062 L 20.226562 4.582031 C 20.191406 4.515625 20.148438 4.5 20.105469 4.535156 C 20.039062 4.59375 20 4.664062 19.992188 4.75 C 19.992188 4.796875 20.007812 4.84375 20.039062 4.898438 C 20.121094 6.636719 20.179688 7.84375 20.21875 8.523438 C 20.25 9.089844 20.273438 9.390625 20.296875 9.421875 C 20.300781 9.429688 20.304688 9.425781 20.3125 9.410156 C 20.382812 9.210938 20.433594 9.058594 20.464844 8.949219 C 20.5 8.820312 20.523438 8.703125 20.53125 8.597656 L 20.40625 6.648438 L 20.386719 6.175781 C 20.375 5.84375 20.371094 5.65625 20.375 5.613281 C 20.378906 5.519531 20.390625 5.488281 20.414062 5.511719 " fill-opacity="1" fill-rule="nonzero"/><path fill="#000000" d="M 18.269531 7.070312 L 18.28125 7.085938 C 18.355469 7.179688 18.40625 7.21875 18.433594 7.203125 C 18.464844 7.195312 18.492188 7.117188 18.519531 6.964844 C 18.464844 6.882812 18.363281 6.683594 18.210938 6.367188 C 18.179688 6.304688 18.148438 6.25 18.117188 6.207031 C 18.058594 6.121094 18.007812 6.101562 17.960938 6.144531 C 17.9375 6.15625 17.902344 6.210938 17.847656 6.304688 C 17.828125 6.351562 17.816406 6.398438 17.8125 6.449219 C 17.8125 6.507812 17.820312 6.59375 17.839844 6.707031 C 17.941406 9.3125 18.011719 10.90625 18.050781 11.484375 C 18.082031 11.953125 18.105469 12.238281 18.121094 12.339844 C 18.136719 12.488281 18.160156 12.589844 18.1875 12.644531 C 18.199219 12.675781 18.222656 12.660156 18.25 12.59375 C 18.332031 12.269531 18.410156 11.992188 18.488281 11.769531 L 18.269531 7.070312 " fill-opacity="1" fill-rule="nonzero"/><path fill="#000000" d="M 20.554688 9.515625 L 20.476562 9.625 L 20.183594 9.53125 L 19.90625 9.898438 L 20.339844 10.199219 L 20.546875 9.90625 L 20.816406 10.058594 L 21.125 9.632812 L 20.691406 9.347656 L 20.554688 9.515625 " fill-opacity="1" fill-rule="nonzero"/><path fill="#000000" d="M 19.105469 13.1875 L 19.128906 13.191406 C 19.265625 13.210938 19.359375 13.25 19.402344 13.308594 C 19.417969 13.320312 19.441406 13.351562 19.472656 13.402344 L 19.628906 13.699219 C 19.667969 13.757812 19.691406 13.792969 19.707031 13.804688 C 19.75 13.84375 19.800781 13.839844 19.867188 13.800781 C 19.875 13.800781 19.878906 13.796875 19.886719 13.792969 C 19.914062 13.664062 19.933594 13.582031 19.9375 13.539062 C 19.945312 13.496094 19.949219 13.453125 19.953125 13.410156 L 19.957031 13.175781 C 19.960938 13.148438 19.964844 13.121094 19.976562 13.097656 C 19.992188 13.070312 20.023438 13.0625 20.066406 13.082031 C 20.085938 13.09375 20.105469 13.105469 20.121094 13.121094 L 20.207031 13.21875 C 20.21875 13.226562 20.230469 13.230469 20.242188 13.230469 C 20.257812 13.226562 20.28125 13.214844 20.304688 13.195312 C 20.324219 13.132812 20.335938 13.085938 20.34375 13.0625 C 20.367188 12.945312 20.363281 12.855469 20.324219 12.792969 C 20.273438 12.707031 20.210938 12.660156 20.136719 12.648438 C 20.035156 12.628906 19.949219 12.664062 19.882812 12.753906 C 19.855469 12.785156 19.832031 12.820312 19.8125 12.859375 C 19.796875 13.03125 19.765625 13.128906 19.722656 13.148438 C 19.714844 13.148438 19.703125 13.144531 19.691406 13.132812 C 19.628906 13.039062 19.585938 12.988281 19.566406 12.976562 C 19.53125 12.945312 19.488281 12.917969 19.4375 12.894531 C 19.296875 12.835938 19.1875 12.824219 19.105469 12.867188 C 19.070312 12.882812 19.042969 12.910156 19.023438 12.941406 C 18.992188 12.988281 18.976562 13.023438 18.980469 13.050781 C 18.980469 13.078125 18.992188 13.101562 19.011719 13.125 C 19.03125 13.140625 19.0625 13.160156 19.105469 13.1875 " fill-opacity="1" fill-rule="nonzero"/><path fill="#000000" d="M 19.382812 5.070312 L 19.410156 5.089844 C 19.542969 5.230469 19.601562 5.15625 19.59375 4.867188 C 19.492188 4.6875 19.371094 4.453125 19.226562 4.15625 C 19.117188 3.980469 19.035156 4.058594 18.984375 4.382812 C 18.976562 4.464844 18.976562 4.601562 18.992188 4.789062 C 19.1875 7.039062 19.296875 8.519531 19.316406 9.230469 C 19.320312 9.359375 19.308594 9.453125 19.273438 9.511719 C 19.21875 9.574219 19.128906 9.617188 19.011719 9.644531 C 18.875 9.679688 18.691406 9.621094 18.472656 9.46875 C 17.917969 9.097656 16.410156 8.113281 13.949219 6.511719 C 13.863281 6.453125 13.824219 6.410156 13.832031 6.382812 C 13.785156 6.328125 13.964844 6.210938 14.367188 6.03125 C 15.339844 5.617188 16.027344 5.34375 16.425781 5.203125 C 17.179688 4.933594 17.714844 4.824219 18.019531 4.878906 C 18.292969 4.929688 18.375 5.085938 18.269531 5.339844 C 18.222656 5.425781 18.164062 5.503906 18.085938 5.566406 L 17.648438 5.863281 C 17.589844 5.90625 17.53125 5.964844 17.476562 6.039062 C 17.367188 6.183594 17.261719 6.359375 17.152344 6.566406 C 17.027344 6.796875 16.984375 6.902344 17.023438 6.878906 C 17.519531 6.34375 17.984375 5.894531 18.425781 5.527344 C 18.484375 5.472656 18.53125 5.414062 18.574219 5.351562 C 18.746094 5.03125 18.71875 4.742188 18.484375 4.488281 C 18.347656 4.285156 17.597656 4.390625 16.234375 4.8125 C 14.792969 5.265625 13.886719 5.664062 13.515625 6.003906 C 13.449219 6.066406 13.386719 6.171875 13.328125 6.320312 C 13.320312 6.378906 13.339844 6.433594 13.386719 6.484375 C 13.492188 6.601562 13.617188 6.710938 13.757812 6.816406 L 15.03125 7.75 C 15.261719 7.929688 15.46875 8.105469 15.652344 8.277344 C 16.09375 8.703125 16.332031 9.085938 16.367188 9.429688 C 16.351562 9.5625 16.285156 9.652344 16.15625 9.703125 C 16.140625 9.714844 16.074219 9.738281 15.953125 9.773438 C 15.546875 9.84375 15.300781 9.898438 15.207031 9.929688 C 15.003906 10 14.859375 10.0625 14.769531 10.125 C 14.648438 10.195312 14.53125 10.285156 14.410156 10.394531 C 13.960938 10.816406 13.699219 11.050781 13.628906 11.101562 C 13.472656 11.226562 13.316406 11.304688 13.152344 11.332031 C 12.996094 11.351562 12.90625 11.261719 12.882812 11.066406 C 12.867188 10.648438 12.949219 10.25 13.136719 9.875 L 12.933594 9.769531 C 12.714844 10.289062 12.605469 10.664062 12.601562 10.902344 C 12.609375 11.300781 12.695312 11.558594 12.867188 11.679688 C 13.039062 11.816406 13.28125 11.8125 13.597656 11.671875 C 13.667969 11.644531 13.78125 11.566406 13.933594 11.441406 C 13.984375 11.402344 14.183594 11.210938 14.53125 10.855469 C 14.640625 10.753906 14.761719 10.664062 14.886719 10.589844 C 15.035156 10.503906 15.148438 10.453125 15.226562 10.429688 L 16.007812 10.21875 C 16.082031 10.199219 16.171875 10.152344 16.269531 10.070312 C 16.34375 10.019531 16.433594 9.859375 16.535156 9.597656 C 16.597656 9.457031 16.625 9.339844 16.621094 9.242188 C 16.621094 9.171875 16.601562 9.089844 16.566406 9.003906 C 16.523438 8.898438 16.441406 8.746094 16.324219 8.546875 C 16.296875 8.496094 16.292969 8.472656 16.308594 8.476562 C 16.347656 8.480469 16.4375 8.535156 16.574219 8.640625 L 17.882812 9.636719 C 18.113281 9.804688 18.316406 9.925781 18.492188 10.007812 C 18.652344 10.082031 18.808594 10.109375 18.960938 10.085938 C 19.214844 10.03125 19.386719 9.953125 19.484375 9.84375 C 19.621094 9.71875 19.679688 9.414062 19.65625 8.933594 L 19.382812 5.070312 " fill-opacity="1" fill-rule="nonzero"/><path fill="#000000" d="M 16.1875 5.9375 L 16.1875 5.988281 C 16.183594 6.226562 16.195312 6.398438 16.214844 6.503906 L 16.378906 7.117188 C 16.386719 7.175781 16.375 7.222656 16.335938 7.257812 C 16.070312 7.316406 15.738281 7.484375 15.339844 7.761719 C 15.0625 7.953125 14.863281 8.097656 14.738281 8.207031 C 14.683594 8.246094 14.460938 8.449219 14.066406 8.808594 C 13.972656 8.894531 13.867188 8.976562 13.757812 9.058594 C 13.441406 9.289062 13.222656 9.40625 13.101562 9.398438 C 12.949219 9.40625 12.894531 9.234375 12.941406 8.878906 C 12.972656 8.683594 13.019531 8.515625 13.078125 8.371094 C 13.105469 8.296875 13.140625 8.226562 13.175781 8.152344 C 13.398438 7.738281 13.496094 7.542969 13.472656 7.5625 C 13.496094 7.492188 13.476562 7.472656 13.417969 7.503906 C 13.183594 7.664062 12.988281 7.910156 12.835938 8.238281 C 12.652344 8.65625 12.558594 9.039062 12.546875 9.386719 C 12.558594 9.632812 12.621094 9.789062 12.738281 9.851562 C 12.910156 9.957031 13.109375 9.972656 13.335938 9.898438 C 13.496094 9.839844 13.660156 9.746094 13.828125 9.613281 C 13.910156 9.550781 13.996094 9.476562 14.082031 9.398438 L 14.148438 9.339844 C 14.621094 8.878906 14.953125 8.570312 15.140625 8.417969 C 15.464844 8.152344 15.714844 7.972656 15.890625 7.882812 C 16.101562 7.765625 16.296875 7.707031 16.484375 7.707031 C 16.636719 7.699219 16.863281 7.757812 17.171875 7.886719 C 17.21875 7.894531 17.253906 7.890625 17.273438 7.867188 C 17.339844 7.773438 17.355469 7.640625 17.316406 7.476562 C 16.898438 7.296875 16.644531 7.0625 16.550781 6.765625 C 16.484375 6.566406 16.449219 6.328125 16.441406 6.058594 C 16.65625 6.15625 16.730469 6.148438 16.65625 6.035156 L 16.304688 5.5 C 16.265625 5.441406 16.238281 5.410156 16.222656 5.410156 C 16.164062 5.429688 16.097656 5.582031 16.023438 5.871094 C 16.019531 5.894531 16.027344 5.910156 16.039062 5.914062 C 16.039062 5.917969 16.089844 5.925781 16.1875 5.9375 " fill-opacity="1" fill-rule="nonzero"/><path fill="#000000" d="M 14.9375 8.957031 L 14.636719 9.386719 L 15.101562 9.691406 L 15.308594 9.347656 L 15.660156 9.515625 L 15.882812 9.066406 L 15.480469 8.824219 L 15.253906 9.136719 L 14.9375 8.957031 " fill-opacity="1" fill-rule="nonzero"/><path fill="#000000" d="M 16.019531 11.15625 L 15.859375 11.355469 L 15.699219 11.550781 C 15.839844 11.664062 15.980469 11.773438 16.121094 11.882812 C 16.222656 11.734375 16.324219 11.585938 16.425781 11.4375 L 16.019531 11.15625 " fill-opacity="1" fill-rule="nonzero"/><g clip-path="url(#d2613bf955)"><path fill="#000000" d="M 18.4375 13.496094 L 18.441406 13.492188 C 18.503906 13.472656 18.566406 13.457031 18.628906 13.449219 C 18.679688 13.445312 18.710938 13.453125 18.710938 13.480469 L 18.710938 13.488281 L 18.707031 13.535156 L 18.695312 13.578125 C 18.683594 13.609375 18.671875 13.636719 18.660156 13.664062 C 18.644531 13.695312 18.625 13.722656 18.609375 13.75 L 18.496094 13.910156 L 18.46875 13.953125 C 18.441406 13.996094 18.429688 14.027344 18.425781 14.046875 C 18.410156 14.089844 18.40625 14.128906 18.410156 14.160156 C 18.414062 14.167969 18.417969 14.175781 18.425781 14.179688 L 18.4375 14.183594 L 18.484375 14.175781 L 18.523438 14.160156 C 18.550781 14.144531 18.574219 14.125 18.59375 14.105469 L 18.625 14.066406 C 18.644531 14.042969 18.664062 14.011719 18.679688 13.984375 C 18.695312 13.953125 18.710938 13.921875 18.726562 13.890625 L 18.789062 13.753906 C 18.839844 13.65625 18.875 13.582031 18.894531 13.535156 C 18.90625 13.503906 18.917969 13.476562 18.925781 13.445312 L 18.9375 13.398438 L 18.941406 13.355469 L 18.941406 13.3125 C 18.929688 13.242188 18.910156 13.199219 18.871094 13.183594 C 18.855469 13.175781 18.832031 13.171875 18.808594 13.171875 L 18.773438 13.171875 C 18.75 13.175781 18.726562 13.183594 18.699219 13.195312 C 18.621094 13.226562 18.550781 13.273438 18.492188 13.335938 C 18.476562 13.359375 18.460938 13.378906 18.453125 13.398438 L 18.4375 13.429688 C 18.4375 13.445312 18.433594 13.464844 18.4375 13.496094 " fill-opacity="1" fill-rule="nonzero"/></g><path fill="#000000" d="M 15.351562 12.183594 L 15.355469 12.183594 C 15.371094 12.1875 15.386719 12.1875 15.390625 12.1875 C 15.425781 12.1875 15.457031 12.191406 15.492188 12.191406 C 15.535156 12.199219 15.558594 12.203125 15.566406 12.207031 C 15.601562 12.222656 15.621094 12.234375 15.625 12.238281 C 15.632812 12.246094 15.636719 12.257812 15.640625 12.269531 L 15.640625 12.289062 L 15.632812 12.320312 L 15.621094 12.351562 L 15.601562 12.378906 C 15.589844 12.398438 15.574219 12.414062 15.554688 12.429688 C 15.492188 12.476562 15.421875 12.507812 15.347656 12.515625 C 15.28125 12.523438 15.234375 12.515625 15.203125 12.492188 L 15.160156 12.453125 L 15.128906 12.410156 L 15.105469 12.359375 L 15.09375 12.300781 L 15.089844 12.238281 L 15.09375 12.171875 L 15.105469 12.105469 C 15.113281 12.058594 15.121094 12.011719 15.132812 11.96875 C 15.136719 11.953125 15.160156 11.878906 15.203125 11.753906 L 15.207031 11.726562 L 15.226562 11.605469 L 15.234375 11.574219 C 15.242188 11.539062 15.261719 11.511719 15.289062 11.496094 C 15.308594 11.492188 15.320312 11.492188 15.324219 11.492188 L 15.359375 11.5 L 15.382812 11.523438 L 15.394531 11.5625 L 15.394531 11.613281 C 15.390625 11.648438 15.382812 11.691406 15.375 11.734375 C 15.347656 11.851562 15.332031 11.921875 15.328125 11.945312 L 15.316406 12.015625 L 15.3125 12.078125 L 15.320312 12.132812 L 15.320312 12.136719 C 15.328125 12.152344 15.335938 12.167969 15.351562 12.183594 " fill-opacity="1" fill-rule="nonzero"/><path fill="#000000" d="M 16.929688 11.394531 L 16.933594 11.398438 C 16.953125 11.402344 16.964844 11.402344 16.96875 11.402344 C 17.003906 11.402344 17.035156 11.402344 17.070312 11.40625 C 17.113281 11.414062 17.140625 11.417969 17.144531 11.421875 C 17.183594 11.4375 17.199219 11.445312 17.203125 11.453125 C 17.210938 11.460938 17.21875 11.472656 17.21875 11.484375 L 17.21875 11.503906 C 17.21875 11.515625 17.214844 11.53125 17.210938 11.546875 C 17.210938 11.554688 17.203125 11.574219 17.1875 11.609375 C 17.171875 11.632812 17.15625 11.660156 17.136719 11.679688 C 17.089844 11.722656 17.042969 11.746094 16.988281 11.75 C 16.828125 11.757812 16.726562 11.699219 16.6875 11.574219 L 16.675781 11.515625 L 16.671875 11.453125 L 16.671875 11.386719 L 16.683594 11.320312 C 16.691406 11.273438 16.699219 11.226562 16.714844 11.183594 C 16.714844 11.164062 16.738281 11.09375 16.78125 10.96875 L 16.789062 10.941406 L 16.804688 10.816406 L 16.8125 10.789062 C 16.824219 10.75 16.839844 10.726562 16.867188 10.710938 C 16.886719 10.707031 16.898438 10.703125 16.902344 10.707031 L 16.941406 10.714844 L 16.964844 10.738281 L 16.972656 10.777344 L 16.972656 10.828125 C 16.96875 10.863281 16.964844 10.90625 16.953125 10.949219 C 16.925781 11.066406 16.910156 11.136719 16.90625 11.160156 L 16.894531 11.230469 L 16.890625 11.292969 L 16.898438 11.347656 L 16.898438 11.351562 C 16.90625 11.367188 16.917969 11.382812 16.929688 11.394531 " fill-opacity="1" fill-rule="nonzero"/><path fill="#000000" d="M 13.402344 10.578125 L 13.40625 10.578125 L 13.4375 10.59375 C 13.480469 10.605469 13.515625 10.617188 13.554688 10.632812 C 13.597656 10.65625 13.625 10.667969 13.628906 10.675781 C 13.644531 10.6875 13.65625 10.699219 13.664062 10.710938 L 13.671875 10.730469 L 13.675781 10.75 L 13.671875 10.769531 C 13.664062 10.792969 13.640625 10.824219 13.605469 10.867188 C 13.585938 10.890625 13.558594 10.910156 13.535156 10.925781 C 13.480469 10.957031 13.421875 10.96875 13.363281 10.957031 C 13.28125 10.945312 13.214844 10.90625 13.164062 10.851562 L 13.128906 10.800781 L 13.109375 10.746094 L 13.101562 10.6875 L 13.105469 10.625 L 13.121094 10.558594 C 13.132812 10.515625 13.148438 10.472656 13.171875 10.425781 C 13.191406 10.382812 13.214844 10.339844 13.238281 10.296875 C 13.246094 10.28125 13.289062 10.214844 13.367188 10.097656 L 13.378906 10.074219 L 13.429688 9.957031 L 13.445312 9.929688 C 13.464844 9.894531 13.488281 9.871094 13.515625 9.859375 C 13.539062 9.855469 13.5625 9.859375 13.589844 9.875 L 13.609375 9.898438 L 13.613281 9.933594 L 13.609375 9.976562 C 13.601562 10.003906 13.589844 10.039062 13.574219 10.074219 L 13.546875 10.132812 L 13.460938 10.300781 C 13.441406 10.335938 13.425781 10.367188 13.414062 10.394531 C 13.398438 10.433594 13.398438 10.492188 13.402344 10.578125 " fill-opacity="1" fill-rule="nonzero"/><path fill="#000000" d="M 13.917969 8.226562 C 13.9375 8.238281 13.953125 8.242188 13.960938 8.246094 C 13.964844 8.25 14.003906 8.253906 14.074219 8.257812 C 14.085938 8.257812 14.09375 8.261719 14.105469 8.261719 C 14.128906 8.269531 14.144531 8.277344 14.148438 8.28125 C 14.167969 8.296875 14.179688 8.316406 14.191406 8.339844 C 14.199219 8.371094 14.199219 8.390625 14.195312 8.402344 C 14.167969 8.472656 14.128906 8.527344 14.078125 8.5625 C 14.050781 8.582031 14.023438 8.59375 13.996094 8.605469 C 13.972656 8.609375 13.949219 8.613281 13.925781 8.613281 C 13.871094 8.617188 13.804688 8.597656 13.730469 8.550781 C 13.703125 8.53125 13.6875 8.515625 13.683594 8.507812 L 13.644531 8.460938 L 13.625 8.40625 L 13.617188 8.347656 L 13.617188 8.28125 L 13.628906 8.214844 L 13.648438 8.148438 C 13.667969 8.101562 13.6875 8.058594 13.707031 8.011719 C 13.730469 7.96875 13.753906 7.925781 13.78125 7.882812 L 13.867188 7.742188 L 13.878906 7.714844 L 13.929688 7.597656 C 13.9375 7.578125 13.945312 7.558594 13.957031 7.542969 C 13.96875 7.527344 13.980469 7.515625 13.992188 7.507812 L 14.011719 7.496094 C 14.03125 7.492188 14.046875 7.492188 14.0625 7.5 C 14.09375 7.519531 14.101562 7.574219 14.085938 7.660156 C 14.082031 7.679688 14.070312 7.710938 14.054688 7.757812 C 14.046875 7.777344 14.035156 7.796875 14.027344 7.816406 C 13.980469 7.910156 13.953125 7.964844 13.945312 7.984375 C 13.929688 8.023438 13.914062 8.0625 13.902344 8.097656 C 13.894531 8.125 13.890625 8.152344 13.894531 8.179688 C 13.898438 8.199219 13.902344 8.214844 13.917969 8.226562 " fill-opacity="1" fill-rule="nonzero"/><path fill="#000000" d="M 12.683594 6.941406 L 12.6875 6.941406 C 12.703125 6.953125 12.71875 6.957031 12.730469 6.960938 C 12.734375 6.964844 12.769531 6.96875 12.835938 6.976562 C 12.847656 6.976562 12.855469 6.980469 12.867188 6.980469 C 12.890625 6.992188 12.902344 6.996094 12.90625 7 C 12.925781 7.015625 12.9375 7.035156 12.945312 7.058594 C 12.953125 7.089844 12.953125 7.109375 12.949219 7.117188 C 12.933594 7.167969 12.898438 7.210938 12.847656 7.253906 C 12.796875 7.292969 12.746094 7.3125 12.691406 7.3125 C 12.660156 7.3125 12.632812 7.308594 12.601562 7.300781 C 12.585938 7.292969 12.574219 7.289062 12.558594 7.28125 C 12.523438 7.265625 12.503906 7.253906 12.5 7.25 C 12.472656 7.226562 12.453125 7.210938 12.453125 7.203125 L 12.417969 7.15625 L 12.398438 7.101562 L 12.394531 7.042969 L 12.398438 6.984375 L 12.410156 6.921875 L 12.433594 6.855469 C 12.449219 6.8125 12.46875 6.769531 12.492188 6.726562 C 12.515625 6.6875 12.539062 6.644531 12.566406 6.605469 L 12.652344 6.476562 L 12.667969 6.449219 L 12.71875 6.339844 C 12.726562 6.320312 12.734375 6.304688 12.746094 6.289062 C 12.78125 6.242188 12.816406 6.230469 12.851562 6.246094 C 12.878906 6.269531 12.886719 6.320312 12.867188 6.402344 C 12.863281 6.421875 12.851562 6.449219 12.832031 6.496094 C 12.824219 6.511719 12.816406 6.53125 12.804688 6.550781 C 12.757812 6.636719 12.730469 6.691406 12.722656 6.710938 C 12.703125 6.746094 12.6875 6.78125 12.679688 6.816406 C 12.667969 6.84375 12.664062 6.867188 12.667969 6.894531 C 12.667969 6.914062 12.675781 6.929688 12.683594 6.941406 " fill-opacity="1" fill-rule="nonzero"/><path fill="#000000" d="M 13.664062 5.398438 C 13.683594 5.410156 13.695312 5.417969 13.707031 5.421875 C 13.710938 5.421875 13.742188 5.429688 13.808594 5.441406 L 13.835938 5.449219 C 13.859375 5.457031 13.871094 5.464844 13.875 5.46875 C 13.894531 5.484375 13.90625 5.503906 13.910156 5.527344 C 13.914062 5.554688 13.914062 5.574219 13.910156 5.585938 C 13.882812 5.648438 13.839844 5.695312 13.789062 5.722656 C 13.765625 5.738281 13.738281 5.75 13.710938 5.757812 C 13.6875 5.761719 13.664062 5.761719 13.640625 5.761719 C 13.578125 5.753906 13.523438 5.730469 13.472656 5.691406 C 13.445312 5.667969 13.425781 5.652344 13.425781 5.644531 L 13.394531 5.597656 L 13.378906 5.542969 L 13.375 5.488281 L 13.382812 5.429688 L 13.398438 5.367188 L 13.421875 5.304688 C 13.441406 5.265625 13.460938 5.222656 13.484375 5.183594 C 13.511719 5.144531 13.535156 5.105469 13.5625 5.066406 C 13.582031 5.039062 13.613281 4.996094 13.660156 4.9375 L 13.789062 4.753906 C 13.808594 4.726562 13.828125 4.71875 13.855469 4.734375 C 13.882812 4.753906 13.886719 4.804688 13.863281 4.886719 C 13.859375 4.902344 13.847656 4.929688 13.824219 4.972656 C 13.816406 4.988281 13.808594 5.007812 13.796875 5.023438 L 13.707031 5.175781 C 13.691406 5.210938 13.675781 5.246094 13.660156 5.277344 C 13.652344 5.300781 13.644531 5.328125 13.648438 5.351562 C 13.648438 5.371094 13.652344 5.386719 13.664062 5.398438 " fill-opacity="1" fill-rule="nonzero"/><path fill="#000000" d="M 17.203125 5.699219 L 17.207031 5.699219 C 17.226562 5.710938 17.238281 5.714844 17.25 5.71875 C 17.253906 5.722656 17.292969 5.726562 17.363281 5.730469 C 17.375 5.730469 17.382812 5.734375 17.394531 5.734375 C 17.417969 5.742188 17.433594 5.75 17.4375 5.753906 C 17.457031 5.769531 17.46875 5.789062 17.480469 5.8125 C 17.488281 5.84375 17.488281 5.863281 17.484375 5.875 C 17.457031 5.945312 17.417969 6 17.367188 6.035156 C 17.339844 6.054688 17.3125 6.066406 17.285156 6.078125 C 17.261719 6.082031 17.238281 6.085938 17.214844 6.085938 C 17.160156 6.089844 17.09375 6.070312 17.019531 6.023438 C 16.992188 6.003906 16.972656 5.988281 16.96875 5.980469 L 16.933594 5.933594 L 16.914062 5.878906 L 16.90625 5.816406 L 16.90625 5.753906 L 16.917969 5.6875 L 16.9375 5.621094 C 16.957031 5.574219 16.976562 5.53125 16.996094 5.484375 C 17.019531 5.441406 17.042969 5.394531 17.070312 5.355469 C 17.085938 5.324219 17.117188 5.273438 17.164062 5.207031 C 17.226562 5.097656 17.269531 5.027344 17.285156 5 C 17.304688 4.96875 17.328125 4.960938 17.351562 4.972656 C 17.382812 4.992188 17.390625 5.046875 17.375 5.132812 C 17.371094 5.152344 17.359375 5.183594 17.34375 5.230469 C 17.335938 5.25 17.324219 5.269531 17.316406 5.289062 C 17.269531 5.382812 17.242188 5.4375 17.234375 5.457031 C 17.21875 5.496094 17.203125 5.535156 17.191406 5.570312 C 17.183594 5.597656 17.179688 5.625 17.183594 5.652344 C 17.1875 5.671875 17.191406 5.6875 17.203125 5.699219 " fill-opacity="1" fill-rule="nonzero"/><path fill="#000000" d="M 18.71875 6.171875 C 18.738281 6.183594 18.753906 6.1875 18.761719 6.191406 C 18.769531 6.195312 18.804688 6.199219 18.875 6.203125 C 18.886719 6.203125 18.898438 6.207031 18.90625 6.210938 C 18.929688 6.21875 18.945312 6.222656 18.949219 6.226562 C 18.96875 6.242188 18.984375 6.261719 18.992188 6.289062 C 19 6.316406 19 6.335938 18.996094 6.347656 C 18.96875 6.417969 18.929688 6.472656 18.878906 6.507812 C 18.851562 6.527344 18.824219 6.542969 18.796875 6.550781 C 18.773438 6.558594 18.75 6.5625 18.726562 6.5625 C 18.671875 6.5625 18.605469 6.542969 18.535156 6.5 C 18.503906 6.476562 18.488281 6.460938 18.484375 6.457031 L 18.449219 6.40625 L 18.425781 6.351562 L 18.417969 6.292969 L 18.417969 6.230469 L 18.429688 6.164062 L 18.453125 6.09375 C 18.46875 6.050781 18.488281 6.003906 18.507812 5.957031 C 18.53125 5.914062 18.554688 5.871094 18.582031 5.828125 C 18.597656 5.796875 18.632812 5.75 18.675781 5.679688 C 18.738281 5.570312 18.78125 5.503906 18.796875 5.472656 C 18.816406 5.445312 18.839844 5.433594 18.863281 5.445312 C 18.898438 5.46875 18.902344 5.519531 18.886719 5.609375 C 18.882812 5.625 18.871094 5.65625 18.855469 5.703125 C 18.847656 5.722656 18.839844 5.742188 18.828125 5.761719 C 18.78125 5.855469 18.753906 5.910156 18.746094 5.929688 C 18.730469 5.972656 18.714844 6.007812 18.707031 6.042969 C 18.695312 6.070312 18.691406 6.097656 18.695312 6.125 C 18.699219 6.144531 18.707031 6.160156 18.71875 6.171875 " fill-opacity="1" fill-rule="nonzero"/><path fill="#000000" d="M 18.949219 8.652344 L 18.953125 8.652344 C 18.972656 8.664062 18.984375 8.667969 18.996094 8.671875 C 19 8.675781 19.039062 8.679688 19.109375 8.683594 C 19.121094 8.683594 19.128906 8.6875 19.140625 8.6875 C 19.164062 8.695312 19.179688 8.703125 19.183594 8.707031 C 19.203125 8.722656 19.214844 8.742188 19.226562 8.765625 C 19.234375 8.796875 19.234375 8.816406 19.230469 8.828125 C 19.203125 8.898438 19.164062 8.953125 19.113281 8.988281 C 19.085938 9.007812 19.058594 9.019531 19.03125 9.03125 C 19.007812 9.035156 18.984375 9.039062 18.960938 9.039062 C 18.902344 9.042969 18.839844 9.023438 18.765625 8.976562 C 18.738281 8.957031 18.71875 8.941406 18.714844 8.933594 L 18.679688 8.886719 L 18.660156 8.832031 L 18.648438 8.769531 L 18.652344 8.707031 L 18.664062 8.640625 L 18.683594 8.574219 C 18.699219 8.527344 18.71875 8.484375 18.742188 8.4375 C 18.765625 8.394531 18.789062 8.351562 18.816406 8.308594 L 18.902344 8.167969 L 18.914062 8.140625 L 18.964844 8.023438 C 18.972656 8.003906 18.980469 7.984375 18.992188 7.96875 C 19 7.953125 19.011719 7.941406 19.027344 7.933594 L 19.046875 7.921875 C 19.0625 7.917969 19.082031 7.917969 19.097656 7.925781 C 19.128906 7.945312 19.136719 8 19.121094 8.085938 C 19.117188 8.105469 19.105469 8.136719 19.085938 8.183594 C 19.085938 8.195312 19.054688 8.257812 18.992188 8.382812 C 18.972656 8.429688 18.960938 8.457031 18.957031 8.46875 C 18.945312 8.503906 18.941406 8.566406 18.949219 8.652344 " fill-opacity="1" fill-rule="nonzero"/><path fill="#000000" d="M 17.605469 8.226562 L 17.609375 8.226562 C 17.628906 8.238281 17.640625 8.242188 17.652344 8.246094 C 17.65625 8.25 17.695312 8.253906 17.765625 8.257812 C 17.777344 8.257812 17.785156 8.261719 17.796875 8.261719 C 17.820312 8.269531 17.835938 8.277344 17.839844 8.28125 C 17.859375 8.296875 17.871094 8.316406 17.882812 8.339844 C 17.890625 8.371094 17.890625 8.390625 17.886719 8.402344 C 17.859375 8.472656 17.820312 8.527344 17.769531 8.5625 C 17.742188 8.582031 17.714844 8.59375 17.6875 8.605469 C 17.664062 8.613281 17.640625 8.613281 17.617188 8.613281 C 17.5625 8.617188 17.496094 8.597656 17.421875 8.550781 C 17.394531 8.53125 17.375 8.515625 17.371094 8.511719 L 17.335938 8.460938 L 17.316406 8.40625 L 17.308594 8.347656 L 17.308594 8.28125 L 17.320312 8.214844 L 17.339844 8.148438 C 17.355469 8.101562 17.375 8.058594 17.398438 8.011719 C 17.421875 7.96875 17.445312 7.925781 17.472656 7.882812 L 17.558594 7.742188 L 17.570312 7.714844 L 17.621094 7.597656 C 17.628906 7.578125 17.636719 7.558594 17.648438 7.546875 C 17.65625 7.53125 17.667969 7.515625 17.683594 7.507812 L 17.703125 7.496094 C 17.71875 7.492188 17.738281 7.492188 17.753906 7.5 C 17.785156 7.519531 17.792969 7.574219 17.777344 7.660156 C 17.773438 7.679688 17.761719 7.710938 17.746094 7.757812 C 17.734375 7.777344 17.726562 7.796875 17.71875 7.816406 C 17.671875 7.910156 17.644531 7.964844 17.636719 7.984375 C 17.621094 8.023438 17.605469 8.0625 17.59375 8.097656 C 17.585938 8.125 17.582031 8.152344 17.585938 8.179688 C 17.585938 8.199219 17.59375 8.214844 17.605469 8.226562 " fill-opacity="1" fill-rule="nonzero"/><path fill="#000000" d="M 19.78125 6.234375 L 19.785156 6.234375 C 19.800781 6.246094 19.816406 6.25 19.828125 6.253906 C 19.832031 6.257812 19.871094 6.261719 19.941406 6.265625 C 19.949219 6.265625 19.960938 6.269531 19.96875 6.269531 C 19.996094 6.28125 20.007812 6.285156 20.011719 6.289062 C 20.03125 6.304688 20.046875 6.324219 20.054688 6.347656 C 20.0625 6.378906 20.066406 6.398438 20.0625 6.410156 C 20.035156 6.480469 19.996094 6.535156 19.941406 6.570312 C 19.917969 6.589844 19.890625 6.605469 19.859375 6.613281 C 19.839844 6.621094 19.816406 6.621094 19.789062 6.621094 C 19.734375 6.625 19.671875 6.605469 19.597656 6.5625 C 19.566406 6.539062 19.550781 6.523438 19.546875 6.519531 L 19.511719 6.46875 L 19.488281 6.414062 L 19.480469 6.355469 L 19.484375 6.289062 L 19.496094 6.226562 L 19.515625 6.15625 C 19.53125 6.109375 19.550781 6.066406 19.574219 6.019531 C 19.597656 5.976562 19.621094 5.933594 19.644531 5.890625 C 19.664062 5.859375 19.695312 5.8125 19.738281 5.742188 C 19.804688 5.632812 19.84375 5.566406 19.863281 5.535156 C 19.882812 5.503906 19.902344 5.496094 19.929688 5.507812 C 19.960938 5.53125 19.96875 5.582031 19.949219 5.671875 C 19.949219 5.6875 19.9375 5.71875 19.917969 5.765625 C 19.910156 5.785156 19.902344 5.804688 19.894531 5.824219 C 19.847656 5.917969 19.820312 5.972656 19.8125 5.992188 C 19.792969 6.03125 19.78125 6.070312 19.769531 6.105469 C 19.761719 6.132812 19.757812 6.160156 19.757812 6.1875 C 19.761719 6.207031 19.769531 6.222656 19.78125 6.234375 " fill-opacity="1" fill-rule="nonzero"/><path fill="#000000" d="M 14.742188 6.550781 C 14.890625 6.550781 14.988281 6.574219 15.046875 6.617188 C 15.082031 6.644531 15.117188 6.675781 15.148438 6.71875 L 15.332031 6.976562 C 15.359375 7.011719 15.382812 7.039062 15.410156 7.066406 C 15.449219 7.109375 15.492188 7.121094 15.539062 7.109375 C 15.5625 7.101562 15.589844 7.085938 15.625 7.058594 C 15.636719 6.933594 15.640625 6.835938 15.640625 6.757812 C 15.644531 6.695312 15.632812 6.582031 15.613281 6.417969 C 15.609375 6.386719 15.613281 6.359375 15.621094 6.332031 C 15.636719 6.300781 15.667969 6.292969 15.707031 6.304688 C 15.726562 6.3125 15.746094 6.320312 15.769531 6.339844 L 15.875 6.425781 C 15.886719 6.433594 15.902344 6.433594 15.917969 6.429688 C 15.933594 6.421875 15.949219 6.410156 15.972656 6.386719 C 15.984375 6.300781 15.992188 6.234375 15.992188 6.1875 C 15.996094 6.078125 15.960938 5.988281 15.886719 5.921875 C 15.8125 5.859375 15.730469 5.835938 15.636719 5.859375 C 15.59375 5.875 15.554688 5.894531 15.523438 5.929688 C 15.5 5.953125 15.472656 5.996094 15.445312 6.054688 L 15.417969 6.113281 C 15.421875 6.226562 15.417969 6.304688 15.410156 6.339844 C 15.402344 6.382812 15.390625 6.410156 15.371094 6.421875 C 15.359375 6.425781 15.347656 6.421875 15.335938 6.410156 C 15.257812 6.328125 15.207031 6.277344 15.183594 6.269531 C 15.144531 6.242188 15.097656 6.222656 15.042969 6.207031 C 14.894531 6.164062 14.777344 6.167969 14.695312 6.226562 C 14.621094 6.296875 14.589844 6.363281 14.597656 6.429688 C 14.601562 6.460938 14.617188 6.484375 14.640625 6.5 C 14.660156 6.515625 14.695312 6.53125 14.742188 6.550781 " fill-opacity="1" fill-rule="nonzero"/><g clip-path="url(#2ffd094ef1)"><path fill="#000000" d="M 16.46875 14.066406 C 16.484375 14.070312 16.5 14.070312 16.511719 14.070312 C 16.546875 14.0625 16.582031 14.058594 16.617188 14.058594 C 16.644531 14.054688 16.671875 14.058594 16.695312 14.0625 C 16.746094 14.066406 16.777344 14.085938 16.789062 14.121094 L 16.792969 14.136719 L 16.789062 14.171875 L 16.777344 14.207031 L 16.757812 14.246094 C 16.746094 14.269531 16.726562 14.289062 16.707031 14.3125 L 16.671875 14.339844 C 16.648438 14.359375 16.625 14.375 16.597656 14.390625 C 16.570312 14.402344 16.542969 14.414062 16.515625 14.421875 C 16.453125 14.441406 16.398438 14.4375 16.355469 14.417969 L 16.304688 14.386719 L 16.265625 14.34375 L 16.234375 14.292969 L 16.214844 14.234375 L 16.199219 14.167969 L 16.195312 14.097656 L 16.195312 14.023438 C 16.195312 13.976562 16.199219 13.925781 16.207031 13.875 C 16.207031 13.855469 16.21875 13.777344 16.246094 13.640625 L 16.246094 13.609375 L 16.25 13.472656 L 16.25 13.441406 C 16.253906 13.421875 16.257812 13.40625 16.265625 13.390625 L 16.277344 13.367188 L 16.296875 13.351562 C 16.308594 13.34375 16.328125 13.339844 16.347656 13.339844 L 16.382812 13.347656 L 16.410156 13.375 L 16.421875 13.417969 L 16.425781 13.472656 L 16.425781 13.535156 C 16.425781 13.554688 16.421875 13.628906 16.410156 13.753906 C 16.40625 13.804688 16.402344 13.855469 16.40625 13.898438 L 16.410156 13.964844 L 16.425781 14.019531 C 16.429688 14.03125 16.445312 14.046875 16.46875 14.066406 " fill-opacity="1" fill-rule="nonzero"/></g><g clip-path="url(#3b13a26631)"><path fill="#000000" d="M 12.179688 8.964844 L 12.179688 8.960938 C 12.160156 8.949219 12.144531 8.941406 12.132812 8.9375 C 12.128906 8.933594 12.085938 8.925781 12.011719 8.910156 L 11.976562 8.902344 C 11.949219 8.886719 11.9375 8.878906 11.933594 8.875 C 11.914062 8.855469 11.898438 8.832031 11.894531 8.804688 C 11.886719 8.769531 11.886719 8.746094 11.894531 8.734375 C 11.917969 8.683594 11.957031 8.632812 12.019531 8.589844 C 12.082031 8.546875 12.144531 8.53125 12.210938 8.535156 C 12.289062 8.542969 12.355469 8.574219 12.414062 8.621094 C 12.449219 8.652344 12.46875 8.675781 12.472656 8.683594 L 12.507812 8.742188 L 12.523438 8.804688 L 12.527344 8.871094 L 12.515625 8.941406 L 12.492188 9.011719 L 12.464844 9.082031 C 12.441406 9.132812 12.414062 9.179688 12.382812 9.226562 C 12.351562 9.273438 12.320312 9.316406 12.289062 9.359375 L 12.175781 9.5 C 12.164062 9.519531 12.152344 9.539062 12.144531 9.558594 L 12.09375 9.648438 C 12.082031 9.667969 12.070312 9.6875 12.058594 9.703125 C 12.015625 9.753906 11.976562 9.769531 11.933594 9.746094 C 11.898438 9.71875 11.898438 9.65625 11.925781 9.566406 C 11.933594 9.546875 11.949219 9.511719 11.972656 9.464844 C 11.984375 9.441406 11.996094 9.421875 12.007812 9.402344 C 12.070312 9.304688 12.109375 9.246094 12.121094 9.226562 C 12.144531 9.183594 12.164062 9.144531 12.179688 9.109375 C 12.191406 9.078125 12.199219 9.046875 12.199219 9.019531 C 12.199219 8.996094 12.191406 8.980469 12.179688 8.964844 " fill-opacity="1" fill-rule="nonzero"/></g><g clip-path="url(#32e6589ac5)"><path fill="#000000" d="M 14.902344 4.484375 L 14.859375 4.5 C 14.558594 4.617188 14.398438 4.707031 14.390625 4.773438 C 14.351562 4.9375 14.339844 5.058594 14.363281 5.136719 C 14.382812 5.191406 14.433594 5.210938 14.519531 5.1875 C 14.554688 5.171875 14.574219 5.152344 14.578125 5.128906 C 14.585938 5.125 14.585938 5.085938 14.585938 5.015625 C 14.59375 4.976562 14.605469 4.949219 14.613281 4.941406 C 14.664062 4.871094 14.730469 4.816406 14.808594 4.78125 C 14.863281 4.746094 15.011719 4.683594 15.257812 4.59375 C 15.351562 4.558594 15.714844 4.4375 16.351562 4.234375 C 16.550781 4.167969 16.683594 4.121094 16.738281 4.09375 C 17.003906 3.980469 17.160156 3.882812 17.207031 3.796875 C 17.234375 3.738281 17.171875 3.734375 17.007812 3.785156 C 16.9375 3.804688 16.824219 3.84375 16.664062 3.902344 L 14.902344 4.484375 " fill-opacity="1" fill-rule="nonzero"/></g><path fill="#000000" d="M 14.71875 11.261719 L 14.699219 11.269531 C 14.628906 11.3125 14.574219 11.355469 14.539062 11.398438 C 14.480469 11.476562 14.449219 11.535156 14.449219 11.582031 C 14.449219 11.617188 14.472656 11.632812 14.515625 11.628906 C 14.5625 11.613281 14.597656 11.601562 14.621094 11.585938 L 14.722656 11.53125 C 14.796875 11.488281 14.875 11.4375 14.953125 11.382812 C 14.960938 11.378906 15.105469 11.277344 15.390625 11.078125 C 15.433594 11.050781 15.484375 11.015625 15.542969 10.984375 C 15.570312 10.964844 15.585938 10.953125 15.589844 10.945312 C 15.664062 10.886719 15.703125 10.816406 15.710938 10.738281 C 15.707031 10.675781 15.648438 10.679688 15.535156 10.742188 C 15.433594 10.792969 15.269531 10.902344 15.039062 11.066406 L 14.71875 11.261719 " fill-opacity="1" fill-rule="nonzero"/><path fill="#000000" d="M 17.011719 9.394531 C 17.039062 9.398438 17.042969 9.40625 17.054688 9.429688 C 17.0625 9.457031 17.066406 9.457031 17.066406 9.492188 C 17.066406 9.5 17.0625 9.542969 17.058594 9.550781 C 17.058594 9.5625 17.0625 9.535156 17.058594 9.554688 C 17.058594 9.570312 17.054688 9.585938 17.046875 9.597656 C 17.035156 9.617188 17.015625 9.628906 16.992188 9.628906 C 16.976562 9.625 16.964844 9.621094 16.957031 9.617188 C 16.953125 9.613281 16.945312 9.609375 16.9375 9.597656 C 16.933594 9.589844 16.929688 9.578125 16.929688 9.5625 C 16.925781 9.539062 16.925781 9.519531 16.925781 9.507812 C 16.929688 9.46875 16.9375 9.441406 16.953125 9.425781 C 16.96875 9.402344 16.988281 9.394531 17.011719 9.394531 M 17.046875 9.230469 L 17.035156 9.230469 C 16.914062 9.261719 16.828125 9.328125 16.785156 9.433594 C 16.773438 9.46875 16.773438 9.492188 16.777344 9.523438 C 16.777344 9.558594 16.808594 9.589844 16.84375 9.679688 C 16.847656 9.695312 16.855469 9.714844 16.859375 9.726562 C 16.859375 9.75 16.832031 9.765625 16.773438 9.839844 C 16.734375 9.886719 16.6875 9.933594 16.6875 9.933594 C 16.492188 10.121094 16.367188 10.226562 16.296875 10.289062 C 16.171875 10.394531 16.089844 10.453125 16.046875 10.460938 C 15.988281 10.539062 15.949219 10.605469 15.929688 10.660156 C 15.910156 10.707031 15.902344 10.738281 15.902344 10.746094 C 15.902344 10.769531 15.910156 10.78125 15.925781 10.777344 C 16 10.765625 16.1875 10.625 16.496094 10.351562 C 16.8125 10.074219 16.996094 9.890625 17.042969 9.792969 C 17.136719 9.820312 17.1875 9.816406 17.210938 9.785156 C 17.230469 9.757812 17.246094 9.71875 17.238281 9.660156 C 17.238281 9.640625 17.234375 9.628906 17.222656 9.617188 C 17.203125 9.59375 17.179688 9.585938 17.160156 9.585938 C 17.1875 9.476562 17.167969 9.390625 17.144531 9.316406 C 17.128906 9.265625 17.097656 9.238281 17.046875 9.230469 Z M 17.046875 9.230469 " fill-opacity="1" fill-rule="nonzero"/><path fill="#000000" d="M 17.011719 9.394531 C 17.039062 9.398438 17.042969 9.40625 17.054688 9.429688 C 17.0625 9.457031 17.066406 9.457031 17.066406 9.492188 C 17.066406 9.5 17.0625 9.542969 17.058594 9.550781 C 17.058594 9.5625 17.0625 9.535156 17.058594 9.554688 C 17.058594 9.570312 17.054688 9.585938 17.046875 9.597656 C 17.035156 9.617188 17.015625 9.628906 16.992188 9.628906 C 16.976562 9.625 16.964844 9.621094 16.957031 9.617188 C 16.953125 9.613281 16.945312 9.609375 16.9375 9.597656 C 16.933594 9.589844 16.929688 9.578125 16.929688 9.5625 C 16.925781 9.539062 16.925781 9.519531 16.925781 9.507812 C 16.929688 9.46875 16.9375 9.441406 16.953125 9.425781 C 16.96875 9.402344 16.988281 9.394531 17.011719 9.394531 M 17.046875 9.230469 L 17.035156 9.230469 C 16.914062 9.261719 16.828125 9.328125 16.785156 9.433594 C 16.773438 9.46875 16.773438 9.492188 16.777344 9.523438 C 16.777344 9.558594 16.808594 9.589844 16.84375 9.679688 C 16.847656 9.695312 16.855469 9.714844 16.859375 9.726562 C 16.859375 9.75 16.832031 9.765625 16.773438 9.839844 C 16.734375 9.886719 16.6875 9.933594 16.6875 9.933594 C 16.492188 10.121094 16.367188 10.226562 16.296875 10.289062 C 16.171875 10.394531 16.089844 10.453125 16.046875 10.460938 C 15.988281 10.539062 15.949219 10.605469 15.929688 10.660156 C 15.910156 10.707031 15.902344 10.738281 15.902344 10.746094 C 15.902344 10.769531 15.910156 10.78125 15.925781 10.777344 C 16 10.765625 16.1875 10.625 16.496094 10.351562 C 16.8125 10.074219 16.996094 9.890625 17.042969 9.792969 C 17.136719 9.820312 17.1875 9.816406 17.210938 9.785156 C 17.230469 9.757812 17.246094 9.71875 17.238281 9.660156 C 17.238281 9.640625 17.234375 9.628906 17.222656 9.617188 C 17.203125 9.59375 17.179688 9.585938 17.160156 9.585938 C 17.1875 9.476562 17.167969 9.390625 17.144531 9.316406 C 17.128906 9.265625 17.097656 9.238281 17.046875 9.230469 Z M 17.046875 9.230469 " fill-opacity="1" fill-rule="nonzero"/><path fill="#000000" d="M 20.765625 7.167969 L 20.769531 7.167969 C 20.792969 7.175781 20.800781 7.183594 20.808594 7.207031 C 20.820312 7.230469 20.820312 7.234375 20.820312 7.265625 C 20.820312 7.273438 20.816406 7.316406 20.816406 7.328125 C 20.8125 7.335938 20.816406 7.3125 20.816406 7.328125 C 20.8125 7.347656 20.808594 7.359375 20.800781 7.375 C 20.789062 7.394531 20.773438 7.402344 20.75 7.402344 C 20.734375 7.402344 20.722656 7.398438 20.714844 7.390625 C 20.707031 7.390625 20.699219 7.382812 20.695312 7.371094 C 20.691406 7.367188 20.6875 7.355469 20.683594 7.335938 C 20.679688 7.316406 20.679688 7.296875 20.683594 7.28125 C 20.683594 7.246094 20.695312 7.21875 20.707031 7.199219 C 20.722656 7.179688 20.742188 7.167969 20.765625 7.167969 M 20.800781 7.007812 L 20.789062 7.007812 C 20.667969 7.039062 20.585938 7.101562 20.542969 7.207031 C 20.527344 7.242188 20.527344 7.269531 20.53125 7.300781 C 20.535156 7.332031 20.566406 7.363281 20.597656 7.453125 C 20.605469 7.472656 20.613281 7.488281 20.613281 7.5 C 20.617188 7.523438 20.589844 7.542969 20.53125 7.613281 C 20.492188 7.660156 20.441406 7.707031 20.441406 7.707031 C 20.246094 7.894531 20.121094 8 20.050781 8.0625 C 19.929688 8.171875 19.847656 8.230469 19.804688 8.234375 C 19.746094 8.3125 19.703125 8.378906 19.683594 8.433594 C 19.664062 8.484375 19.65625 8.511719 19.65625 8.519531 C 19.660156 8.546875 19.667969 8.554688 19.679688 8.554688 C 19.753906 8.542969 19.945312 8.398438 20.25 8.128906 C 20.566406 7.847656 20.75 7.664062 20.796875 7.570312 C 20.890625 7.597656 20.945312 7.59375 20.964844 7.5625 C 20.984375 7.53125 21 7.492188 20.996094 7.4375 C 20.992188 7.417969 20.992188 7.402344 20.980469 7.390625 C 20.960938 7.371094 20.933594 7.359375 20.914062 7.359375 C 20.941406 7.253906 20.925781 7.167969 20.902344 7.089844 C 20.886719 7.042969 20.855469 7.011719 20.800781 7.007812 Z M 20.800781 7.007812 " fill-opacity="1" fill-rule="nonzero"/><path fill="#000000" d="M 13.367188 6.816406 L 13.371094 6.816406 C 13.398438 6.824219 13.40625 6.828125 13.414062 6.855469 C 13.425781 6.882812 13.429688 6.886719 13.429688 6.925781 C 13.425781 6.933594 13.425781 6.980469 13.421875 6.992188 C 13.421875 7.003906 13.425781 6.972656 13.421875 6.992188 C 13.417969 7.011719 13.414062 7.027344 13.40625 7.042969 C 13.394531 7.066406 13.375 7.078125 13.347656 7.074219 C 13.328125 7.074219 13.316406 7.070312 13.308594 7.066406 C 13.300781 7.058594 13.292969 7.054688 13.289062 7.042969 C 13.28125 7.035156 13.277344 7.023438 13.273438 7.003906 C 13.273438 6.976562 13.273438 6.957031 13.273438 6.941406 C 13.277344 6.902344 13.285156 6.871094 13.300781 6.851562 C 13.320312 6.828125 13.34375 6.816406 13.367188 6.816406 M 13.40625 6.636719 L 13.394531 6.636719 C 13.257812 6.667969 13.164062 6.742188 13.117188 6.859375 C 13.101562 6.898438 13.101562 6.925781 13.105469 6.960938 C 13.109375 6.996094 13.144531 7.03125 13.179688 7.132812 C 13.1875 7.152344 13.195312 7.171875 13.195312 7.183594 C 13.199219 7.210938 13.171875 7.230469 13.105469 7.3125 C 13.0625 7.363281 13.007812 7.414062 13.007812 7.414062 C 12.789062 7.625 12.652344 7.742188 12.570312 7.808594 C 12.433594 7.929688 12.34375 7.996094 12.296875 8 C 12.230469 8.089844 12.183594 8.164062 12.160156 8.222656 C 12.140625 8.277344 12.132812 8.308594 12.132812 8.320312 C 12.132812 8.347656 12.144531 8.359375 12.160156 8.355469 C 12.242188 8.34375 12.453125 8.183594 12.792969 7.882812 C 13.144531 7.574219 13.347656 7.367188 13.402344 7.261719 C 13.503906 7.292969 13.566406 7.285156 13.589844 7.253906 C 13.613281 7.21875 13.628906 7.175781 13.621094 7.113281 C 13.621094 7.09375 13.617188 7.078125 13.605469 7.0625 C 13.582031 7.039062 13.554688 7.03125 13.53125 7.03125 C 13.5625 6.910156 13.542969 6.8125 13.515625 6.726562 C 13.5 6.671875 13.464844 6.640625 13.40625 6.636719 Z M 13.40625 6.636719 " fill-opacity="1" fill-rule="nonzero"/><g clip-path="url(#3b2b424014)"><path fill="#000000" d="M 17.839844 3.902344 L 17.839844 3.894531 C 17.847656 3.84375 17.859375 3.808594 17.867188 3.785156 C 17.871094 3.777344 17.878906 3.761719 17.894531 3.730469 C 17.910156 3.710938 17.929688 3.691406 17.949219 3.671875 C 17.976562 3.644531 18.03125 3.609375 18.117188 3.566406 C 18.164062 3.542969 18.210938 3.523438 18.257812 3.511719 C 18.296875 3.507812 18.332031 3.507812 18.367188 3.515625 C 18.414062 3.527344 18.445312 3.539062 18.453125 3.546875 C 18.472656 3.554688 18.488281 3.5625 18.507812 3.574219 C 18.578125 3.625 18.613281 3.6875 18.613281 3.765625 L 18.601562 3.816406 L 18.578125 3.867188 L 18.542969 3.914062 L 18.5 3.953125 L 18.449219 3.992188 L 18.390625 4.027344 L 18.328125 4.058594 L 18.265625 4.082031 L 18.199219 4.097656 L 18.132812 4.109375 C 18.085938 4.113281 18.046875 4.113281 18.015625 4.109375 C 17.988281 4.105469 17.972656 4.101562 17.960938 4.097656 C 17.953125 4.089844 17.945312 4.082031 17.945312 4.070312 C 17.941406 4.054688 17.941406 4.042969 17.945312 4.03125 C 17.949219 4.019531 17.953125 4.015625 17.957031 4.015625 C 17.960938 4.011719 17.972656 4.003906 17.996094 3.996094 C 18.054688 3.980469 18.082031 3.972656 18.085938 3.96875 C 18.105469 3.960938 18.121094 3.953125 18.125 3.945312 C 18.136719 3.929688 18.144531 3.90625 18.144531 3.875 C 18.144531 3.847656 18.132812 3.828125 18.117188 3.820312 C 18.097656 3.808594 18.070312 3.808594 18.039062 3.820312 C 18.015625 3.824219 17.996094 3.832031 17.976562 3.84375 L 17.894531 3.882812 C 17.882812 3.886719 17.867188 3.894531 17.839844 3.902344 " fill-opacity="1" fill-rule="nonzero"/></g><path fill="#000000" d="M 19.234375 10.363281 L 19.234375 10.359375 C 19.230469 10.324219 19.238281 10.289062 19.257812 10.257812 C 19.277344 10.210938 19.304688 10.171875 19.34375 10.136719 C 19.355469 10.125 19.367188 10.113281 19.378906 10.105469 L 19.398438 10.089844 L 19.421875 10.078125 L 19.511719 10.027344 C 19.558594 10.003906 19.605469 9.984375 19.65625 9.976562 C 19.730469 9.960938 19.808594 9.980469 19.890625 10.03125 C 19.96875 10.082031 20.007812 10.148438 20.003906 10.230469 L 19.992188 10.28125 L 19.96875 10.328125 L 19.9375 10.375 L 19.890625 10.417969 L 19.839844 10.457031 L 19.785156 10.488281 L 19.722656 10.519531 L 19.65625 10.542969 L 19.589844 10.558594 L 19.527344 10.570312 C 19.476562 10.574219 19.441406 10.574219 19.417969 10.574219 C 19.394531 10.570312 19.371094 10.566406 19.351562 10.558594 C 19.34375 10.554688 19.339844 10.546875 19.335938 10.535156 C 19.328125 10.507812 19.332031 10.492188 19.339844 10.484375 C 19.351562 10.472656 19.363281 10.464844 19.378906 10.453125 L 19.472656 10.402344 L 19.492188 10.390625 C 19.507812 10.378906 19.515625 10.371094 19.523438 10.359375 C 19.535156 10.351562 19.539062 10.339844 19.535156 10.328125 C 19.535156 10.308594 19.527344 10.292969 19.507812 10.285156 C 19.5 10.277344 19.488281 10.277344 19.472656 10.277344 C 19.464844 10.273438 19.441406 10.277344 19.398438 10.289062 C 19.347656 10.304688 19.292969 10.328125 19.234375 10.363281 " fill-opacity="1" fill-rule="nonzero"/><path fill="#000000" d="M 19.367188 11.171875 L 19.371094 11.171875 C 19.445312 11.121094 19.488281 11.074219 19.492188 11.03125 C 19.449219 10.972656 19.382812 10.929688 19.289062 10.914062 C 19.214844 10.898438 19.144531 10.90625 19.074219 10.929688 C 19.011719 10.957031 18.945312 11.003906 18.878906 11.070312 C 18.792969 11.167969 18.75 11.261719 18.75 11.347656 C 18.75 11.414062 18.757812 11.464844 18.777344 11.5 C 18.792969 11.527344 18.796875 11.539062 18.796875 11.535156 C 18.800781 11.539062 18.808594 11.542969 18.8125 11.542969 C 18.839844 11.554688 18.855469 11.5625 18.859375 11.566406 C 18.867188 11.574219 18.867188 11.578125 18.863281 11.582031 C 18.855469 11.605469 18.84375 11.632812 18.824219 11.65625 C 18.792969 11.695312 18.734375 11.753906 18.652344 11.832031 L 18.625 11.867188 C 18.609375 11.886719 18.601562 11.90625 18.601562 11.925781 L 18.605469 11.949219 C 18.628906 11.984375 18.652344 11.992188 18.683594 11.972656 L 18.707031 11.957031 L 18.78125 11.898438 C 18.914062 11.804688 18.988281 11.753906 19 11.746094 C 19.105469 11.683594 19.175781 11.644531 19.207031 11.636719 C 19.238281 11.625 19.273438 11.621094 19.308594 11.617188 L 19.527344 11.601562 C 19.558594 11.597656 19.589844 11.589844 19.617188 11.578125 L 19.652344 11.558594 L 19.675781 11.527344 L 19.691406 11.488281 C 19.695312 11.484375 19.695312 11.460938 19.695312 11.425781 C 19.6875 11.359375 19.660156 11.316406 19.617188 11.296875 C 19.585938 11.289062 19.542969 11.292969 19.484375 11.304688 C 19.472656 11.304688 19.382812 11.328125 19.222656 11.375 C 19.207031 11.378906 19.171875 11.382812 19.113281 11.394531 C 19.0625 11.398438 19.03125 11.394531 19.015625 11.375 L 19.003906 11.347656 C 19.003906 11.328125 19.003906 11.3125 19.011719 11.296875 C 19.03125 11.265625 19.0625 11.238281 19.101562 11.214844 C 19.144531 11.191406 19.1875 11.175781 19.234375 11.167969 L 19.273438 11.164062 C 19.308594 11.171875 19.339844 11.175781 19.367188 11.171875 " fill-opacity="1" fill-rule="nonzero"/><path fill="#000000" d="M 21.699219 13.289062 L 21.246094 13.320312 L 21.699219 13.289062 " fill-opacity="1" fill-rule="nonzero"/><path fill="#000000" d="M 7.324219 29.414062 L 15.019531 25.03125 L 11.289062 23.058594 L 11.203125 23.011719 L 8.566406 24.480469 L 8.378906 25.511719 L 9.355469 25.0625 C 9.359375 25.0625 9.363281 25.058594 9.371094 25.054688 L 9.375 25.050781 C 9.402344 25.039062 9.429688 25.03125 9.460938 25.019531 C 9.488281 25.011719 9.515625 25.003906 9.546875 25 L 9.585938 24.992188 C 9.621094 24.988281 9.65625 24.984375 9.6875 24.984375 C 9.925781 24.984375 10.152344 25.09375 10.304688 25.285156 C 10.460938 25.46875 10.515625 25.707031 10.46875 25.949219 C 10.445312 26.0625 10.398438 26.171875 10.328125 26.269531 C 10.261719 26.367188 10.171875 26.441406 10.070312 26.5 L 7.367188 28.25 Z M 7.324219 29.414062 " fill-opacity="1" fill-rule="nonzero"/><g clip-path="url(#9c9ac06b66)"><path fill="#000000" d="M 12.511719 21.988281 L 16.386719 24.019531 L 16.746094 24.191406 L 18.425781 24.203125 L 22.621094 22.007812 L 29.507812 18.398438 L 30.210938 18.03125 L 26.554688 12.769531 L 26.023438 13.082031 L 29.304688 17.992188 L 29.355469 18.066406 L 29.277344 18.105469 L 29.210938 18.136719 L 18.40625 23.742188 C 18.351562 23.769531 18.289062 23.785156 18.226562 23.785156 L 16.902344 23.785156 C 16.839844 23.785156 16.777344 23.769531 16.722656 23.742188 L 5.917969 18.136719 L 5.808594 18.078125 L 5.730469 18.039062 L 5.78125 17.96875 L 9.042969 13.082031 L 8.511719 12.769531 L 4.878906 18 L 5.582031 18.367188 Z M 12.511719 21.988281 " fill-opacity="1" fill-rule="nonzero"/></g><path fill="#000000" d="M 25.453125 25.277344 C 25.304688 25.277344 25.15625 25.347656 25.058594 25.46875 C 24.960938 25.589844 24.925781 25.738281 24.953125 25.894531 C 24.972656 25.96875 25 26.035156 25.042969 26.097656 C 25.046875 26.105469 25.054688 26.113281 25.0625 26.121094 C 25.101562 25.894531 25.304688 25.714844 25.539062 25.714844 C 25.601562 25.714844 25.675781 25.726562 25.746094 25.761719 L 26.375 26.058594 L 26.792969 26.257812 L 26.863281 25.875 L 25.667969 25.324219 C 25.597656 25.292969 25.527344 25.277344 25.453125 25.277344 Z M 25.453125 25.277344 " fill-opacity="1" fill-rule="nonzero"/><path fill="#000000" d="M 9.382812 25.765625 C 9.453125 25.730469 9.519531 25.714844 9.589844 25.714844 C 9.820312 25.714844 10.023438 25.894531 10.0625 26.121094 C 10.070312 26.113281 10.074219 26.109375 10.078125 26.101562 C 10.125 26.042969 10.15625 25.972656 10.167969 25.894531 C 10.199219 25.742188 10.164062 25.589844 10.066406 25.46875 C 9.96875 25.351562 9.820312 25.277344 9.671875 25.277344 C 9.597656 25.277344 9.527344 25.296875 9.457031 25.328125 L 8.273438 25.875 L 8.34375 26.257812 L 8.75 26.0625 Z M 9.382812 25.765625 " fill-opacity="1" fill-rule="nonzero"/><path fill="#000000" d="M 23.9375 23.011719 L 23.851562 23.058594 L 20.121094 25.03125 L 27.8125 29.410156 L 27.472656 28.25 L 25.074219 26.5 C 24.972656 26.445312 24.882812 26.367188 24.8125 26.269531 C 24.742188 26.171875 24.695312 26.066406 24.675781 25.949219 C 24.625 25.707031 24.683594 25.46875 24.835938 25.285156 C 24.988281 25.09375 25.214844 24.984375 25.453125 24.984375 C 25.488281 24.984375 25.519531 24.988281 25.554688 24.992188 L 25.597656 25 C 25.628906 25.007812 25.65625 25.011719 25.679688 25.019531 C 25.714844 25.03125 25.742188 25.039062 25.765625 25.050781 L 25.769531 25.054688 C 25.777344 25.058594 25.78125 25.058594 25.789062 25.0625 L 26.761719 25.511719 L 26.574219 24.480469 Z M 23.9375 23.011719 " fill-opacity="1" fill-rule="nonzero"/><g clip-path="url(#456159f12c)"><path fill="#000000" d="M 15.417969 25.238281 L 7.300781 29.839844 L 7.671875 30.550781 L 16.273438 25.6875 L 15.507812 25.28125 Z M 15.417969 25.238281 " fill-opacity="1" fill-rule="nonzero"/></g><g clip-path="url(#5ce4a49830)"><path fill="#000000" d="M 21.582031 26.207031 L 21.582031 26.203125 L 19.570312 25.164062 L 18.453125 24.582031 L 18.019531 24.582031 L 16.679688 24.570312 L 16.660156 24.570312 L 16.644531 24.5625 L 16.25 24.355469 L 16.242188 24.355469 L 15.730469 24.085938 L 12.382812 22.339844 L 12.375 22.34375 L 12.34375 22.328125 L 5.433594 18.714844 L 4.765625 18.367188 L 4.765625 19.207031 L 5.503906 19.59375 L 11.441406 22.734375 L 14.695312 24.457031 L 14.710938 24.464844 L 16.875 25.59375 L 16.9375 25.625 L 17.585938 25.96875 L 19.570312 26.046875 L 19.585938 26.046875 L 19.601562 26.054688 L 27.460938 30.539062 L 27.832031 29.832031 L 21.59375 26.210938 Z M 21.582031 26.207031 " fill-opacity="1" fill-rule="nonzero"/></g><g clip-path="url(#9d0b431a59)"><path fill="#000000" d="M 29.628906 18.746094 L 22.902344 22.265625 L 22.910156 22.269531 L 22.789062 22.332031 L 18.878906 24.378906 L 19.617188 24.769531 L 19.726562 24.824219 L 23.683594 22.734375 L 29.558594 19.632812 L 29.667969 19.574219 L 29.699219 19.558594 L 30.296875 19.207031 L 30.296875 18.398438 Z M 29.628906 18.746094 " fill-opacity="1" fill-rule="nonzero"/></g><g clip-path="url(#39ce871388)"><path fill="#000000" d="M 16.660156 23.316406 L 17.210938 22.75 L 17.195312 22.730469 C 17.191406 22.722656 17.1875 22.714844 17.183594 22.707031 C 17.019531 22.445312 15.511719 20.113281 12.828125 19.796875 C 9.488281 19.40625 7.597656 17.847656 7.519531 17.777344 C 7.433594 17.707031 7.417969 17.582031 7.480469 17.488281 L 10.671875 12.613281 L 9.882812 12.472656 L 6.261719 17.917969 Z M 16.660156 23.316406 " fill-opacity="1" fill-rule="nonzero"/></g><g clip-path="url(#80a6a7b583)"><path fill="#000000" d="M 27.550781 17.488281 C 27.609375 17.582031 27.59375 17.703125 27.507812 17.777344 C 27.429688 17.839844 25.539062 19.402344 22.199219 19.796875 C 19.515625 20.109375 18.007812 22.441406 17.84375 22.707031 C 17.839844 22.710938 17.835938 22.71875 17.832031 22.726562 L 17.816406 22.75 L 18.367188 23.316406 L 28.765625 17.917969 L 25.144531 12.472656 L 24.355469 12.613281 Z M 27.550781 17.488281 " fill-opacity="1" fill-rule="nonzero"/></g><g clip-path="url(#714adf2eee)"><path fill="#000000" d="M 8.3125 17.835938 C 8.96875 18.28125 10.597656 19.214844 13.011719 19.5 C 15.230469 19.761719 16.726562 21.421875 17.300781 22.292969 C 17.328125 22.335938 17.351562 22.375 17.375 22.414062 C 17.382812 22.421875 17.386719 22.429688 17.394531 22.441406 L 17.394531 22.4375 C 17.425781 22.484375 17.46875 22.515625 17.519531 22.527344 C 17.566406 22.515625 17.613281 22.484375 17.640625 22.4375 L 17.644531 22.441406 C 17.652344 22.429688 17.65625 22.421875 17.664062 22.414062 C 17.683594 22.375 17.710938 22.335938 17.738281 22.292969 C 18.3125 21.421875 19.804688 19.761719 22.027344 19.5 C 24.4375 19.214844 26.066406 18.28125 26.722656 17.835938 C 26.90625 17.707031 26.957031 17.453125 26.835938 17.265625 L 23.910156 12.804688 L 23.882812 12.757812 L 23.730469 12.507812 C 23.652344 12.375 23.515625 12.308594 23.378906 12.308594 C 23.261719 12.308594 23.144531 12.355469 23.066406 12.460938 C 22.613281 13.03125 21.621094 13.964844 19.683594 14.578125 C 18.851562 14.84375 18.230469 15.179688 17.765625 15.523438 C 17.710938 15.566406 17.648438 15.589844 17.585938 15.601562 C 17.5625 15.601562 17.542969 15.605469 17.519531 15.605469 C 17.4375 15.605469 17.347656 15.578125 17.277344 15.523438 C 16.808594 15.179688 16.1875 14.84375 15.359375 14.578125 C 13.421875 13.964844 12.429688 13.03125 11.976562 12.460938 C 11.894531 12.359375 11.777344 12.308594 11.664062 12.308594 C 11.527344 12.308594 11.390625 12.375 11.3125 12.507812 L 11.160156 12.757812 L 11.128906 12.804688 L 8.207031 17.265625 C 8.082031 17.453125 8.128906 17.707031 8.3125 17.835938 Z M 17.730469 16.015625 C 17.832031 15.988281 17.929688 15.941406 18.015625 15.878906 C 18.5 15.515625 19.101562 15.21875 19.808594 14.996094 C 21.757812 14.375 22.820312 13.445312 23.371094 12.765625 L 23.5 12.984375 L 23.503906 12.988281 L 23.503906 12.992188 L 23.535156 13.039062 L 23.535156 13.042969 L 23.539062 13.046875 L 26.449219 17.484375 C 25.859375 17.878906 24.289062 18.789062 21.96875 19.0625 C 19.847656 19.3125 18.410156 20.722656 17.730469 21.566406 Z M 11.488281 13.046875 L 11.488281 13.042969 L 11.492188 13.042969 L 11.519531 12.996094 L 11.523438 12.992188 L 11.527344 12.984375 L 11.65625 12.765625 C 12.207031 13.449219 13.269531 14.375 15.21875 14.996094 C 15.921875 15.222656 16.523438 15.519531 17.011719 15.878906 C 17.097656 15.945312 17.195312 15.992188 17.292969 16.019531 L 17.292969 21.566406 C 16.613281 20.722656 15.175781 19.316406 13.054688 19.066406 C 10.734375 18.792969 9.164062 17.882812 8.574219 17.484375 Z M 11.488281 13.046875 " fill-opacity="1" fill-rule="nonzero"/></g></svg>